<mxfile host="www.draw.io" modified="2020-01-03T04:15:51.212Z" agent="Mozilla/5.0 (Windows NT 10.0; Win64; x64) AppleWebKit/537.36 (KHTML, like Gecko) Chrome/79.0.3945.88 Safari/537.36" etag="1RenxLsZ_77WGr8ryan9" version="12.4.8" type="github">
  <diagram id="Y39rpOWlz4xw2428_F-x" name="Page-1">
    <mxGraphModel dx="3678" dy="1386" grid="1" gridSize="10" guides="1" tooltips="1" connect="0" arrows="0" fold="1" page="0" pageScale="1" pageWidth="850" pageHeight="1100" background="none" math="0" shadow="1">
      <root>
        <mxCell id="0"/>
        <mxCell id="1" parent="0"/>
        <mxCell id="XAEHC6KbXbvbR4zccbpY-2" value="&lt;h1&gt;Code&lt;/h1&gt;&lt;p&gt;&lt;b&gt;sortedToIndex = green, unsortedFromIndex&amp;nbsp;&lt;span&gt;= red, current&lt;/span&gt;&lt;span&gt;&amp;nbsp;= blue&lt;/span&gt;&lt;/b&gt;&lt;/p&gt;&lt;p&gt;&lt;b&gt;&lt;span&gt;&lt;br&gt;&lt;/span&gt;&lt;/b&gt;&lt;/p&gt;&lt;p&gt;&lt;b&gt;&lt;span&gt;current = 1&lt;/span&gt;&lt;/b&gt;&lt;/p&gt;&lt;p&gt;&lt;b&gt;&lt;span&gt;sortedToIndex = 0&lt;/span&gt;&lt;/b&gt;&lt;/p&gt;&lt;p&gt;&lt;b&gt;unsortedFromIndex = 1&lt;/b&gt;&lt;/p&gt;&lt;p&gt;&lt;b&gt;&lt;span&gt;while(current &amp;lt; length of array) {&lt;/span&gt;&lt;/b&gt;&lt;/p&gt;&lt;p&gt;&lt;b&gt;&lt;span&gt;&amp;nbsp; &amp;nbsp; while(array[(unsortedFromIndex - 1)] &amp;gt; array[unsortedFromIndex]&lt;/span&gt;&lt;/b&gt;&lt;b&gt;&lt;span&gt;) {&lt;/span&gt;&lt;/b&gt;&lt;b&gt;&amp;nbsp; &amp;nbsp; &amp;nbsp; &amp;nbsp;&amp;nbsp;&lt;/b&gt;&lt;/p&gt;&lt;b&gt;&amp;nbsp; &amp;nbsp; &amp;nbsp; &amp;nbsp; swap(array[(unsortedFromIndex - 1)] with array[unsortedFromIndex])&lt;br&gt;&amp;nbsp; &amp;nbsp; &amp;nbsp; &amp;nbsp; unsortedFromIndex--&lt;br&gt;&lt;/b&gt;&lt;p&gt;&lt;b&gt;&lt;span&gt;&amp;nbsp; &amp;nbsp; }&lt;/span&gt;&lt;/b&gt;&lt;/p&gt;&lt;p&gt;&lt;b&gt;&lt;span&gt;&amp;nbsp; &amp;nbsp; sortedToIndex = current&lt;/span&gt;&lt;/b&gt;&lt;/p&gt;&lt;p&gt;&lt;b&gt;&amp;nbsp; &amp;nbsp; current++&lt;/b&gt;&lt;/p&gt;&lt;p&gt;&lt;b&gt;&amp;nbsp; &amp;nbsp; unsortedFromIndex = current&lt;/b&gt;&lt;/p&gt;&lt;p&gt;&lt;b&gt;&lt;span&gt;}&lt;/span&gt;&lt;/b&gt;&lt;/p&gt;&lt;p&gt;&lt;b&gt;return array&lt;/b&gt;&lt;/p&gt;&lt;p&gt;&lt;span&gt;&lt;br&gt;&lt;/span&gt;&lt;/p&gt;&lt;p&gt;&lt;span&gt;&lt;br&gt;&lt;/span&gt;&lt;/p&gt;&lt;p&gt;&lt;span&gt;&lt;br&gt;&lt;/span&gt;&lt;/p&gt;&lt;p&gt;&lt;br&gt;&lt;/p&gt;" style="text;html=1;strokeColor=none;fillColor=none;spacing=5;spacingTop=-20;whiteSpace=wrap;overflow=hidden;rounded=0;" parent="1" vertex="1">
          <mxGeometry x="-2200" y="-360" width="460" height="479" as="geometry"/>
        </mxCell>
        <mxCell id="uZvXOm2LKyM3_u4rVOQU-34" value="" style="shape=partialRectangle;whiteSpace=wrap;html=1;bottom=1;right=1;left=1;top=0;fillColor=none;routingCenterX=-0.5;rotation=-90;" parent="1" vertex="1">
          <mxGeometry x="-1626" y="-505" width="40" height="10" as="geometry"/>
        </mxCell>
        <mxCell id="RJuIG2niTKRgMKhPFdZx-1" value="5" style="text;html=1;strokeColor=none;fillColor=none;align=center;verticalAlign=middle;whiteSpace=wrap;rounded=0;" parent="1" vertex="1">
          <mxGeometry x="-1840" y="-510" width="40" height="20" as="geometry"/>
        </mxCell>
        <mxCell id="RJuIG2niTKRgMKhPFdZx-2" value="6" style="text;html=1;strokeColor=none;fillColor=none;align=center;verticalAlign=middle;whiteSpace=wrap;rounded=0;" parent="1" vertex="1">
          <mxGeometry x="-1760" y="-510" width="40" height="20" as="geometry"/>
        </mxCell>
        <mxCell id="RJuIG2niTKRgMKhPFdZx-3" value="3" style="text;html=1;strokeColor=none;fillColor=none;align=center;verticalAlign=middle;whiteSpace=wrap;rounded=0;" parent="1" vertex="1">
          <mxGeometry x="-1680" y="-510" width="40" height="20" as="geometry"/>
        </mxCell>
        <mxCell id="uZvXOm2LKyM3_u4rVOQU-46" value="" style="html=1;shadow=0;dashed=0;align=center;verticalAlign=middle;shape=mxgraph.arrows2.arrow;dy=0.64;dx=6.4;direction=north;notch=0;fillColor=#f8cecc;strokeColor=#b85450;" parent="1" vertex="1">
          <mxGeometry x="-2064.5" y="-470" width="10" height="50" as="geometry"/>
        </mxCell>
        <mxCell id="uZvXOm2LKyM3_u4rVOQU-49" value="" style="html=1;shadow=0;dashed=0;align=center;verticalAlign=middle;shape=mxgraph.arrows2.arrow;dy=0.64;dx=6.4;direction=north;notch=0;fillColor=#dae8fc;strokeColor=#6c8ebf;" parent="1" vertex="1">
          <mxGeometry x="-2064.5" y="-470" width="10" height="50" as="geometry"/>
        </mxCell>
        <mxCell id="uZvXOm2LKyM3_u4rVOQU-33" value="" style="shape=partialRectangle;whiteSpace=wrap;html=1;bottom=1;right=1;left=1;top=0;fillColor=none;routingCenterX=-0.5;rotation=90;" parent="1" vertex="1">
          <mxGeometry x="-2212" y="-507.5" width="40" height="15" as="geometry"/>
        </mxCell>
        <mxCell id="uZvXOm2LKyM3_u4rVOQU-38" value="9" style="text;html=1;strokeColor=none;fillColor=none;align=center;verticalAlign=middle;whiteSpace=wrap;rounded=0;" parent="1" vertex="1">
          <mxGeometry x="-1919.5" y="-510" width="40" height="20" as="geometry"/>
        </mxCell>
        <mxCell id="uZvXOm2LKyM3_u4rVOQU-40" value="2" style="text;html=1;strokeColor=none;fillColor=none;align=center;verticalAlign=middle;whiteSpace=wrap;rounded=0;" parent="1" vertex="1">
          <mxGeometry x="-1999.5" y="-510" width="40" height="20" as="geometry"/>
        </mxCell>
        <mxCell id="uZvXOm2LKyM3_u4rVOQU-41" value="5" style="text;html=1;strokeColor=none;fillColor=none;align=center;verticalAlign=middle;whiteSpace=wrap;rounded=0;" parent="1" vertex="1">
          <mxGeometry x="-2079.5" y="-510" width="40" height="20" as="geometry"/>
        </mxCell>
        <mxCell id="uZvXOm2LKyM3_u4rVOQU-44" value="8" style="text;html=1;strokeColor=none;fillColor=none;align=center;verticalAlign=middle;whiteSpace=wrap;rounded=0;" parent="1" vertex="1">
          <mxGeometry x="-2159.5" y="-510" width="40" height="20" as="geometry"/>
        </mxCell>
        <mxCell id="uZvXOm2LKyM3_u4rVOQU-45" value="" style="html=1;shadow=0;dashed=0;align=center;verticalAlign=middle;shape=mxgraph.arrows2.arrow;dy=0.64;dx=6.4;direction=north;notch=0;fillColor=#d5e8d4;strokeColor=#82b366;" parent="1" vertex="1">
          <mxGeometry x="-2144.5" y="-470" width="10" height="50" as="geometry"/>
        </mxCell>
        <mxCell id="uZvXOm2LKyM3_u4rVOQU-61" value="Insertion Sort Algorithm" style="text;html=1;strokeColor=none;fillColor=none;align=left;verticalAlign=middle;whiteSpace=wrap;rounded=0;fontStyle=1" parent="1" vertex="1">
          <mxGeometry x="-2199.5" y="-560" width="240" height="20" as="geometry"/>
        </mxCell>
      </root>
    </mxGraphModel>
  </diagram>
</mxfile>
